<svg width="244" height="60" viewBox="0 0 244 60" fill="none" xmlns="http://www.w3.org/2000/svg">
<path d="M37.0586 0.982727H10.8056C7.94165 0.984557 5.19552 2.11921 3.1704 4.13746C1.14527 6.15571 0.00675646 8.89252 0.00492 11.7468V58.7271C-0.0023671 58.7626 -0.00153763 58.7994 0.00734695 58.8345C0.0162315 58.8697 0.0329436 58.9025 0.0562451 58.9303C0.0795466 58.9582 0.108841 58.9805 0.141957 58.9955C0.175073 59.0106 0.211164 59.018 0.247554 59.0173H47.6167C47.6499 59.0148 47.6823 59.0055 47.7117 58.99C47.7412 58.9745 47.7672 58.9531 47.788 58.9272C47.8088 58.9013 47.824 58.8714 47.8327 58.8393C47.8414 58.8073 47.8434 58.7738 47.8385 58.7409V11.7606C47.8422 8.90697 46.7088 6.16868 44.6874 4.14764C42.6659 2.1266 39.922 0.988219 37.0586 0.982727V0.982727ZM29.9737 7.33889C31.8381 9.81498 33.4389 12.4777 34.7502 15.2841C36.2133 18.381 37.3965 21.6018 38.2857 24.9082C39.1914 28.2102 39.8015 31.5857 40.1089 34.9951C40.3924 38.0788 40.3576 41.1833 40.0049 44.2599C39.7195 46.9669 39.0181 49.614 37.9252 52.1084C37.2223 53.7022 36.2226 55.1486 34.9789 56.3712C34.9305 56.412 34.869 56.4341 34.8056 56.4334H22.667C22.6154 56.4345 22.5646 56.42 22.5214 56.3919C21.7727 55.8777 21.0572 55.317 20.3793 54.713C17.638 52.1557 15.3256 49.177 13.53 45.8904C11.2616 41.8265 9.5126 37.4955 8.32381 32.9985C7.08116 28.517 6.40579 23.8983 6.31341 19.2498C6.20159 15.5111 6.69312 11.7789 7.76922 8.19559C8.26056 6.61593 8.95989 5.10818 9.84894 3.71173C9.87069 3.6782 9.90043 3.65055 9.93551 3.63126C9.97059 3.61197 10.0099 3.60164 10.05 3.60119C11.5474 3.60119 25.2181 3.55283 26.4937 3.55283C26.5248 3.55165 26.5557 3.55722 26.5845 3.56915C26.6132 3.58108 26.639 3.59908 26.66 3.62192C27.8641 4.76908 28.9724 6.01219 29.9737 7.33889ZM45.024 56.3919H42.0361C42.0172 56.3927 41.9984 56.389 41.9813 56.3811C41.9641 56.3732 41.9492 56.3613 41.9376 56.3464C41.9261 56.3315 41.9183 56.314 41.9149 56.2955C41.9115 56.277 41.9127 56.2579 41.9183 56.2399C42.7405 53.6317 43.291 50.9462 43.5612 48.2256C43.9393 44.3566 43.9393 40.4601 43.5612 36.5911C43.1496 32.3705 42.382 28.192 41.2666 24.0998C40.1606 20.0045 38.7065 16.0105 36.92 12.1613C35.5649 9.23587 33.9793 6.42207 32.1782 3.74628C32.1649 3.72816 32.1571 3.70662 32.1557 3.68421C32.1543 3.66179 32.1593 3.63944 32.1703 3.61981C32.1812 3.60018 32.1976 3.58409 32.2174 3.57344C32.2373 3.56279 32.2597 3.55804 32.2822 3.55974H37.0586C38.1371 3.55974 39.205 3.77155 40.2013 4.18307C41.1976 4.59459 42.1027 5.19775 42.865 5.95808C43.6273 6.7184 44.2317 7.62099 44.6438 8.61424C45.0559 9.60749 45.2675 10.6719 45.2666 11.7468V56.157C45.2666 56.2211 45.2411 56.2826 45.1955 56.328C45.15 56.3733 45.0883 56.3988 45.024 56.3988V56.3919Z" fill="white"/>
<path d="M34.1541 34.0901C33.9504 31.4858 33.5001 28.9065 32.8092 26.3867C32.1222 23.8605 31.1936 21.4058 30.0363 19.0564C29.0322 16.9498 27.7952 14.9615 26.3482 13.1286C25.1066 11.5396 23.607 10.1689 21.9115 9.07305C20.4865 8.12158 18.8087 7.61633 17.0935 7.62218C15.4513 7.69094 13.8991 8.3889 12.7607 9.57048C11.3682 11.046 10.3654 12.8432 9.84217 14.8005C9.11028 17.3928 8.78293 20.0819 8.87163 22.7733C8.95883 26.0432 9.44063 29.2907 10.3066 32.4458C11.1536 35.6061 12.3827 38.6522 13.967 41.5171C15.2458 43.883 16.8825 46.0385 18.8196 47.9078C20.2593 49.3414 22.0341 50.3955 23.9843 50.9754C25.5656 51.4245 27.2599 51.2462 28.7122 50.4779C30.2102 49.6255 31.4175 48.3453 32.1784 46.8024C33.0782 44.9963 33.6709 43.0538 33.9323 41.0542C34.2627 38.748 34.3371 36.4125 34.1541 34.0901ZM27.0831 37.51C26.8737 38.7578 26.4417 39.9582 25.8075 41.0542C25.2726 41.9672 24.4658 42.6916 23.499 43.1269C22.8546 43.4006 22.15 43.5029 21.454 43.424C20.6876 43.3357 19.9471 43.0936 19.2772 42.7124C18.4794 42.2607 17.7471 41.7028 17.1004 41.0542C16.3368 40.2674 15.654 39.4064 15.0623 38.4841L15.3881 38.5256H15.7139C15.8187 38.5186 15.9229 38.5047 16.0259 38.4841C16.1315 38.463 16.2357 38.4353 16.3378 38.4012C16.8878 38.1973 17.3587 37.8248 17.6827 37.3372C18.0633 36.7722 18.3294 36.1386 18.4661 35.4719C18.6385 34.6827 18.7061 33.8743 18.6671 33.0676C18.6263 32.1498 18.4845 31.2393 18.2442 30.3524C18.0059 29.4656 17.6687 28.6082 17.239 27.7961C16.8634 27.0791 16.3975 26.4127 15.8526 25.8132C15.3932 25.3089 14.8399 24.8982 14.2235 24.6042C13.6992 24.3481 13.1073 24.2635 12.5319 24.3624C12.4261 24.3827 12.3219 24.4104 12.22 24.4453C12.12 24.4796 12.0227 24.5212 11.9288 24.5697C11.8318 24.618 11.7416 24.6733 11.6515 24.7286L11.3881 24.9289C11.432 23.8363 11.5853 22.7509 11.8456 21.6887C12.065 20.7904 12.4104 19.9275 12.8716 19.1255C13.2524 18.4554 13.7639 17.8682 14.376 17.3982C14.9403 16.9831 15.6009 16.7169 16.2962 16.6244C17.3628 16.5293 18.4324 16.771 19.3534 17.3153C20.4434 17.9152 21.4195 18.7009 22.2373 19.6367C23.2022 20.7744 24.0283 22.0221 24.6983 23.3537C25.4593 24.8587 26.0632 26.4376 26.5007 28.0655C26.9439 29.6892 27.2203 31.3536 27.3257 33.033C27.4272 34.5296 27.3457 36.033 27.0831 37.51Z" fill="white"/>
<path d="M176.615 31.6857C176.587 31.6677 176.563 31.6427 176.547 31.6131C176.53 31.5835 176.522 31.5503 176.522 31.5165C176.522 31.4827 176.53 31.4495 176.547 31.4199C176.563 31.3903 176.587 31.3653 176.615 31.3472C177.989 30.4041 179.101 29.1294 179.846 27.6421C180.592 26.1548 180.947 24.5035 180.879 22.8424C180.879 18.8007 179.825 15.8161 177.662 13.7158C174.022 10.1922 168.511 10.358 162.674 10.5239C161.62 10.5239 157.336 10.586 155.991 10.5929C155.884 10.5948 155.782 10.6385 155.706 10.7148C155.631 10.791 155.589 10.8936 155.589 11.0006V53.7181C155.589 53.8251 155.631 53.9277 155.706 54.004C155.782 54.0802 155.884 54.124 155.991 54.1258C157.828 54.1258 165.385 54.2501 166.494 54.2501C171.707 54.2501 176.151 53.7596 179.173 50.7957C181.378 48.647 182.452 45.538 182.452 41.3029C182.525 39.3074 182.012 37.334 180.975 35.6254C179.938 33.9169 178.423 32.5475 176.615 31.6857ZM162.113 16.3411H162.806C168.178 16.196 171.374 16.5553 173.045 18.2756C173.842 19.0978 174.279 20.5763 174.279 22.7249C174.279 26.6354 172.594 28.6389 167.097 28.6389H162.487C162.433 28.6399 162.379 28.63 162.329 28.6098C162.279 28.5896 162.234 28.5597 162.196 28.5216C162.157 28.4836 162.127 28.4383 162.107 28.3884C162.087 28.3385 162.077 28.2851 162.078 28.2313L162.113 16.3411ZM174.591 46.1598C172.511 48.6747 168.13 48.5089 162.709 48.3914H162.126V35.2645C162.125 35.2107 162.135 35.1573 162.156 35.1074C162.176 35.0576 162.206 35.0123 162.244 34.9742C162.282 34.9362 162.328 34.9062 162.378 34.886C162.428 34.8659 162.481 34.856 162.535 34.8569L167.076 34.8362C173.724 34.8362 175.86 37.3925 175.86 41.3167C175.887 43.6795 175.353 45.1995 174.577 46.1598H174.591Z" fill="white"/>
<path d="M194.57 22.718C184.65 22.718 184.65 31.3748 184.65 38.7052C184.65 46.0355 184.65 54.6854 194.57 54.6854C204.49 54.6854 204.511 46.1046 204.511 38.7052C204.511 31.3057 204.511 22.718 194.57 22.718ZM194.57 49.2826C191.104 49.2826 191.104 46.3187 191.104 38.7052C191.104 31.0916 191.104 28.1208 194.57 28.1208C198.036 28.1208 198.036 31.0156 198.036 38.7052C198.036 46.3947 198.043 49.2826 194.57 49.2826Z" fill="white"/>
<path d="M236.906 22.718H235.859C234.907 22.7185 233.972 22.9683 233.147 23.4424C232.322 23.9165 231.637 24.5982 231.159 25.4194C231.139 25.46 231.106 25.4926 231.065 25.5119C231.024 25.5312 230.977 25.5361 230.933 25.5256C230.889 25.5152 230.849 25.4902 230.821 25.4545C230.793 25.4189 230.778 25.3749 230.778 25.3296V23.6714C230.778 23.5633 230.735 23.4597 230.658 23.3832C230.582 23.3068 230.477 23.2638 230.369 23.2638H224.678C224.57 23.2656 224.467 23.3091 224.39 23.3852C224.314 23.4612 224.27 23.5639 224.268 23.6714V53.6836C224.27 53.7911 224.314 53.8938 224.39 53.9699C224.467 54.0459 224.57 54.0894 224.678 54.0912H230.369C230.477 54.0912 230.582 54.0483 230.658 53.9718C230.735 53.8954 230.778 53.7917 230.778 53.6836V38.8779C230.778 31.1399 230.778 28.1208 234.244 28.1208C237.71 28.1208 237.71 31.0639 237.71 38.8779V53.6836C237.712 53.7911 237.756 53.8938 237.832 53.9699C237.909 54.0459 238.012 54.0894 238.119 54.0912H243.575C243.684 54.0912 243.788 54.0483 243.864 53.9718C243.941 53.8954 243.984 53.7917 243.984 53.6836V30.5043C243.79 26.1517 240.83 22.718 236.906 22.718Z" fill="white"/>
<path d="M219.249 22.718C218.297 22.7185 217.362 22.9683 216.537 23.4424C215.712 23.9165 215.027 24.5982 214.549 25.4194C214.529 25.46 214.496 25.4926 214.455 25.5119C214.413 25.5312 214.367 25.5361 214.323 25.5256C214.279 25.5152 214.239 25.4902 214.211 25.4545C214.183 25.4189 214.168 25.3749 214.168 25.3296V23.6714C214.168 23.5633 214.125 23.4597 214.048 23.3832C213.971 23.3068 213.867 23.2638 213.759 23.2638H208.067C207.96 23.2656 207.857 23.3091 207.78 23.3852C207.704 23.4612 207.66 23.5639 207.658 23.6714V53.6836C207.66 53.7911 207.704 53.8938 207.78 53.9699C207.857 54.0459 207.96 54.0894 208.067 54.0912H214.272L214.168 38.8917C214.168 31.1538 214.168 28.1346 217.634 28.1346H220.56C220.649 28.1349 220.736 28.106 220.807 28.0524C220.879 27.9987 220.931 27.9232 220.955 27.8375L222.265 23.25C222.282 23.1893 222.285 23.1254 222.273 23.0634C222.261 23.0014 222.235 22.943 222.197 22.8928C222.159 22.8426 222.109 22.8019 222.052 22.774C221.996 22.746 221.933 22.7316 221.87 22.7318L219.249 22.718Z" fill="white"/>
<path d="M84.8716 10.7519L78.2512 34.097C78.2397 34.1395 78.2144 34.1771 78.1793 34.2039C78.1442 34.2307 78.1013 34.2452 78.0571 34.2452C78.0129 34.2452 77.9699 34.2307 77.9348 34.2039C77.8997 34.1771 77.8745 34.1395 77.863 34.097L71.2425 10.7519C71.2196 10.6667 71.1692 10.5914 71.099 10.5377C71.0288 10.484 70.9428 10.4549 70.8543 10.4548H65.0242C64.9157 10.4548 64.8116 10.4978 64.7349 10.5742C64.6582 10.6507 64.6151 10.7543 64.6151 10.8624V53.5455C64.6151 53.6536 64.6582 53.7573 64.7349 53.8337C64.8116 53.9101 64.9157 53.9531 65.0242 53.9531H70.7503C70.8043 53.954 70.8579 53.9441 70.9079 53.924C70.958 53.9038 71.0035 53.8738 71.0416 53.8358C71.0798 53.7977 71.1099 53.7524 71.1301 53.7026C71.1503 53.6527 71.1603 53.5993 71.1593 53.5455V30.912C71.1633 30.8651 71.1831 30.8209 71.2156 30.7867C71.2481 30.7525 71.2914 30.7304 71.3382 30.7239C71.385 30.7175 71.4326 30.7271 71.4732 30.7513C71.5138 30.7754 71.5449 30.8126 71.5614 30.8567L75.4158 43.5C75.4423 43.5839 75.4948 43.6572 75.5659 43.7093C75.6369 43.7615 75.7227 43.7898 75.811 43.7901H80.3032C80.3914 43.7898 80.4772 43.7615 80.5483 43.7093C80.6193 43.6572 80.6719 43.5839 80.6983 43.5L84.5805 30.8567C84.597 30.8126 84.6281 30.7754 84.6687 30.7513C84.7093 30.7271 84.7569 30.7175 84.8037 30.7239C84.8505 30.7304 84.8938 30.7525 84.9263 30.7867C84.9588 30.8209 84.9786 30.8651 84.9826 30.912V53.5455C84.9816 53.5993 84.9916 53.6527 85.0118 53.7026C85.032 53.7524 85.0621 53.7977 85.1003 53.8358C85.1384 53.8738 85.1839 53.9038 85.2339 53.924C85.284 53.9441 85.3376 53.954 85.3916 53.9531H91.1177C91.2262 53.9531 91.3303 53.9101 91.407 53.8337C91.4837 53.7573 91.5268 53.6536 91.5268 53.5455V10.8624C91.5268 10.7543 91.4837 10.6507 91.407 10.5742C91.3303 10.4978 91.2262 10.4548 91.1177 10.4548H85.2737C85.1829 10.4518 85.0937 10.4795 85.0206 10.5334C84.9476 10.5874 84.8951 10.6644 84.8716 10.7519Z" fill="white"/>
<path d="M105.142 22.5522C95.2217 22.5522 95.2217 31.2091 95.2217 38.5325C95.2217 45.8559 95.2217 54.5196 105.142 54.5196C111.284 54.5196 113.62 51.2241 114.508 46.9544C114.528 46.8473 114.505 46.7365 114.444 46.6459C114.383 46.5554 114.289 46.4925 114.182 46.4708L108.844 45.4344C108.79 45.4246 108.734 45.4258 108.68 45.438C108.626 45.4502 108.575 45.4731 108.531 45.5054C108.486 45.5377 108.448 45.5786 108.42 45.6258C108.392 45.673 108.373 45.7254 108.366 45.7799C108.012 48.1289 107.166 49.1169 105.142 49.1169C102.078 49.1169 101.71 46.8093 101.676 41.0749C101.675 41.0208 101.685 40.9671 101.705 40.9168C101.725 40.8666 101.755 40.8208 101.793 40.7822C101.831 40.7436 101.877 40.713 101.927 40.6921C101.977 40.6712 102.03 40.6604 102.085 40.6604H114.646C114.754 40.6586 114.857 40.6151 114.934 40.539C115.01 40.463 115.054 40.3603 115.055 40.2528C115.055 39.6517 115.055 39.2165 115.055 38.5325C115.083 31.1331 115.083 22.5522 105.142 22.5522ZM105.142 27.955C108.019 27.955 108.511 29.9447 108.608 34.9951C108.608 35.1051 108.564 35.2105 108.486 35.2882C108.408 35.366 108.303 35.4097 108.192 35.4097H102.099C102.044 35.4097 101.991 35.3989 101.941 35.378C101.89 35.3571 101.845 35.3264 101.807 35.2878C101.769 35.2493 101.739 35.2035 101.719 35.1532C101.699 35.103 101.689 35.0492 101.69 34.9951C101.766 30 102.265 27.9274 105.142 27.9274V27.955Z" fill="white"/>
<path d="M151.756 38.5325C151.756 31.1331 151.756 22.877 141.835 22.5523C138.74 22.3541 135.678 23.282 133.218 25.1638C133.145 25.2196 133.093 25.2984 133.07 25.3875C133.048 25.4765 133.056 25.5706 133.093 25.6544L135.187 30.5528C135.213 30.6187 135.255 30.6769 135.31 30.7217C135.365 30.7664 135.43 30.7962 135.5 30.808C135.57 30.8199 135.642 30.8134 135.709 30.7892C135.775 30.7651 135.834 30.7241 135.88 30.6702C137.877 28.6459 139.88 27.651 141.835 27.955C144.511 28.3627 145.142 29.855 145.301 34.7672C145.303 34.8219 145.294 34.8764 145.274 34.9274C145.255 34.9785 145.225 35.0251 145.187 35.0644C145.148 35.1037 145.103 35.135 145.052 35.1563C145.002 35.1777 144.947 35.1886 144.892 35.1886H141.648C138.182 35.1886 131.735 38.6431 132.123 47.2861C132.359 52.4608 135.298 54.4713 139.222 54.4713H140.269C141.219 54.471 142.153 54.222 142.976 53.7491C143.8 53.2763 144.485 52.5962 144.962 51.7768C144.982 51.7356 145.016 51.7026 145.058 51.6833C145.1 51.664 145.147 51.6597 145.192 51.6711C145.236 51.6824 145.276 51.7087 145.303 51.7456C145.331 51.7824 145.345 51.8276 145.343 51.8736V53.5455C145.342 53.5993 145.352 53.6527 145.372 53.7026C145.392 53.7525 145.423 53.7978 145.461 53.8358C145.499 53.8739 145.544 53.9038 145.594 53.924C145.644 53.9442 145.698 53.9541 145.752 53.9531H151.374C151.483 53.9531 151.587 53.9102 151.663 53.8337C151.74 53.7573 151.783 53.6536 151.783 53.5455V38.5325H151.756ZM145.315 41.8488C145.315 46.457 144.879 49.0685 141.849 49.0685C137.884 49.0685 138.57 45.6141 138.542 44.861C138.515 44.108 139.125 40.8677 141.78 40.5983H144.892C144.946 40.5983 144.999 40.6088 145.049 40.6293C145.099 40.6498 145.144 40.6798 145.182 40.7177C145.22 40.7555 145.25 40.8004 145.27 40.8499C145.291 40.8994 145.301 40.9524 145.301 41.0059L145.315 41.8488Z" fill="white"/>
<path d="M126.043 28.1001H129.814C129.923 28.1001 130.027 28.0571 130.104 27.9807C130.18 27.9043 130.223 27.8006 130.223 27.6925V23.5057C130.224 23.4519 130.214 23.3985 130.194 23.3486C130.174 23.2987 130.144 23.2534 130.106 23.2154C130.068 23.1773 130.022 23.1473 129.972 23.1272C129.922 23.107 129.868 23.0971 129.814 23.0981H126.043C125.935 23.0963 125.832 23.0528 125.756 22.9767C125.68 22.9006 125.636 22.798 125.634 22.6904V13.9162C125.634 13.8081 125.591 13.7044 125.514 13.6279C125.438 13.5515 125.334 13.5085 125.225 13.5085H119.603C119.495 13.5103 119.392 13.5538 119.316 13.6299C119.239 13.706 119.196 13.8086 119.194 13.9162V22.6904C119.194 22.7985 119.151 22.9022 119.074 22.9787C118.997 23.0551 118.893 23.0981 118.785 23.0981H116.56C116.506 23.0971 116.452 23.107 116.402 23.1272C116.352 23.1473 116.307 23.1773 116.268 23.2154C116.23 23.2534 116.2 23.2987 116.18 23.3486C116.16 23.3985 116.15 23.4519 116.151 23.5057V27.6925C116.151 27.8006 116.194 27.9043 116.27 27.9807C116.347 28.0571 116.451 28.1001 116.56 28.1001H118.785C118.839 28.0992 118.893 28.1091 118.943 28.1292C118.993 28.1494 119.038 28.1794 119.076 28.2174C119.114 28.2554 119.145 28.3007 119.165 28.3506C119.185 28.4005 119.195 28.4539 119.194 28.5077V38.5325C119.194 52.4884 119.194 54.5196 129.114 54.5196H129.808C129.861 54.5206 129.915 54.5107 129.965 54.4905C130.015 54.4703 130.061 54.4404 130.099 54.4023C130.137 54.3643 130.167 54.319 130.187 54.2691C130.208 54.2192 130.217 54.1658 130.217 54.112V48.3845C130.217 48.2764 130.173 48.1728 130.097 48.0963C130.02 48.0199 129.916 47.9769 129.808 47.9769H129.114C124.74 47.9769 125.648 48.2809 125.648 38.5325V28.5077C125.648 28.402 125.689 28.3003 125.763 28.2243C125.837 28.1482 125.937 28.1037 126.043 28.1001Z" fill="white"/>
</svg>
